<?xml version="1.0" encoding="UTF-8" standalone="no"?><svg xmlns="http://www.w3.org/2000/svg" xmlns:xlink="http://www.w3.org/1999/xlink" contentStyleType="text/css" height="208px" preserveAspectRatio="none" style="width:577px;height:208px;background:#FFFFFF;" version="1.1" viewBox="0 0 577 208" width="577px" zoomAndPan="magnify"><defs/><g><!--MD5=[a63e0d4ac0758c8a0913931857ee993d]
class IDocumentItem--><g id="elem_IDocumentItem"><rect codeLine="1" fill="#F1F1F1" height="67.1201" id="IDocumentItem" rx="2.5" ry="2.5" style="stroke:#181818;stroke-width:0.5;" width="147" x="218" y="7"/><ellipse cx="242" cy="23" fill="#B4A7E5" rx="11" ry="11" style="stroke:#181818;stroke-width:1.0;"/><path d="M238.5938,17.2813 L238.5938,16.875 L244.9063,16.875 L244.9063,17.2813 L242.375,17.2813 Q242.375,17.2813 242.5234,17.4141 Q242.6719,17.5469 242.6719,17.8125 L242.6719,27.2969 Q242.6719,27.5625 242.8906,27.6953 Q243.1094,27.8281 243.1094,27.8281 L244.9063,27.8281 L244.9063,28.2344 L238.5938,28.2344 L238.5938,27.8281 L240.125,27.8281 Q240.4531,27.8281 240.5859,27.6953 Q240.7188,27.5625 240.7188,27.2969 L240.7188,17.8125 Q240.7188,17.5469 240.5859,17.4141 Q240.4531,17.2813 240.125,17.2813 L238.5938,17.2813 Z " fill="#000000"/><text fill="#000000" font-family="sans-serif" font-size="14" font-style="italic" lengthAdjust="spacing" textLength="95" x="258" y="29.4839">IDocumentItem</text><line style="stroke:#181818;stroke-width:0.5;" x1="219" x2="364" y1="39" y2="39"/><line style="stroke:#181818;stroke-width:0.5;" x1="219" x2="364" y1="47" y2="47"/><text fill="#000000" font-family="sans-serif" font-size="14" lengthAdjust="spacing" textLength="135" x="224" y="67.0439">accept(visitor:IVisitor)</text></g><g id="elem_GMN3"><path d="M6,17.5 L6,63.0088 A0,0 0 0 0 6,63.0088 L183,63.0088 A0,0 0 0 0 183,63.0088 L183,44.5 L217.59,40.5 L183,36.5 L183,27.5 L173,17.5 L6,17.5 A0,0 0 0 0 6,17.5 " fill="#FEFFDD" style="stroke:#181818;stroke-width:0.5;"/><path d="M173,17.5 L173,27.5 L183,27.5 L173,17.5 " fill="#FEFFDD" style="stroke:#181818;stroke-width:0.5;"/><text fill="#000000" font-family="sans-serif" font-size="13" lengthAdjust="spacing" textLength="156" x="12" y="37.3979">每个文档项接受一个访问者</text><text fill="#000000" font-family="sans-serif" font-size="13" lengthAdjust="spacing" textLength="143" x="12" y="55.1523">并调用对应的访问者方法</text></g><!--MD5=[1bdc8f2f8d319edcaeabccf54efee33c]
class Paragraph--><g id="elem_Paragraph"><rect codeLine="5" fill="#F1F1F1" height="67.1201" id="Paragraph" rx="2.5" ry="2.5" style="stroke:#181818;stroke-width:0.5;" width="147" x="39" y="134"/><ellipse cx="75.6" cy="150" fill="#ADD1B2" rx="11" ry="11" style="stroke:#181818;stroke-width:1.0;"/><path d="M74.1781,155.3594 Q72.3188,155.3594 71.225,153.9688 Q70.1313,152.5781 70.1313,149.5938 Q70.1313,147.0625 71.2953,145.4063 Q72.4594,143.75 74.4438,143.75 Q75.9125,143.75 76.3813,143.875 Q76.85,144.0781 76.85,144.0781 Q76.85,144.0781 76.85,144.0078 Q76.85,143.9375 77.4594,143.0156 L78.5063,146.6719 L77.1781,147.0781 Q76.7094,145.5313 76.0453,144.8672 Q75.3813,144.2031 74.3188,144.2031 Q73.9281,144.2031 73.1625,145.7344 Q72.3969,147.2656 72.3969,149.5156 Q72.3969,151.9844 73.0609,153.375 Q73.725,154.7656 74.2563,154.7656 Q75.3188,154.7656 76.0766,154 Q76.8344,153.2344 77.1781,151.5781 L78.5063,152.1719 Q78.1781,153.5781 77.2797,154.4688 Q76.3813,155.3594 74.1781,155.3594 Z " fill="#000000"/><text fill="#000000" font-family="sans-serif" font-size="14" lengthAdjust="spacing" textLength="67" x="94.4" y="156.4839">Paragraph</text><line style="stroke:#181818;stroke-width:0.5;" x1="40" x2="185" y1="166" y2="166"/><line style="stroke:#181818;stroke-width:0.5;" x1="40" x2="185" y1="174" y2="174"/><text fill="#000000" font-family="sans-serif" font-size="14" lengthAdjust="spacing" textLength="135" x="45" y="194.0439">accept(visitor:IVisitor)</text></g><!--MD5=[18b89e0834131a909517048318a5909c]
class Picture--><g id="elem_Picture"><rect codeLine="9" fill="#F1F1F1" height="67.1201" id="Picture" rx="2.5" ry="2.5" style="stroke:#181818;stroke-width:0.5;" width="147" x="221" y="134"/><ellipse cx="268.25" cy="150" fill="#ADD1B2" rx="11" ry="11" style="stroke:#181818;stroke-width:1.0;"/><path d="M266.8281,155.3594 Q264.9688,155.3594 263.875,153.9688 Q262.7813,152.5781 262.7813,149.5938 Q262.7813,147.0625 263.9453,145.4063 Q265.1094,143.75 267.0938,143.75 Q268.5625,143.75 269.0313,143.875 Q269.5,144.0781 269.5,144.0781 Q269.5,144.0781 269.5,144.0078 Q269.5,143.9375 270.1094,143.0156 L271.1563,146.6719 L269.8281,147.0781 Q269.3594,145.5313 268.6953,144.8672 Q268.0313,144.2031 266.9688,144.2031 Q266.5781,144.2031 265.8125,145.7344 Q265.0469,147.2656 265.0469,149.5156 Q265.0469,151.9844 265.7109,153.375 Q266.375,154.7656 266.9063,154.7656 Q267.9688,154.7656 268.7266,154 Q269.4844,153.2344 269.8281,151.5781 L271.1563,152.1719 Q270.8281,153.5781 269.9297,154.4688 Q269.0313,155.3594 266.8281,155.3594 Z " fill="#000000"/><text fill="#000000" font-family="sans-serif" font-size="14" lengthAdjust="spacing" textLength="44" x="288.75" y="156.4839">Picture</text><line style="stroke:#181818;stroke-width:0.5;" x1="222" x2="367" y1="166" y2="166"/><line style="stroke:#181818;stroke-width:0.5;" x1="222" x2="367" y1="174" y2="174"/><text fill="#000000" font-family="sans-serif" font-size="14" lengthAdjust="spacing" textLength="135" x="227" y="194.0439">accept(visitor:IVisitor)</text></g><!--MD5=[c0b936abb008b3271898d4186b5531e4]
class Table--><g id="elem_Table"><rect codeLine="13" fill="#F1F1F1" height="67.1201" id="Table" rx="2.5" ry="2.5" style="stroke:#181818;stroke-width:0.5;" width="147" x="409" y="134"/><ellipse cx="460.25" cy="150" fill="#ADD1B2" rx="11" ry="11" style="stroke:#181818;stroke-width:1.0;"/><path d="M458.8281,155.3594 Q456.9688,155.3594 455.875,153.9688 Q454.7813,152.5781 454.7813,149.5938 Q454.7813,147.0625 455.9453,145.4063 Q457.1094,143.75 459.0938,143.75 Q460.5625,143.75 461.0313,143.875 Q461.5,144.0781 461.5,144.0781 Q461.5,144.0781 461.5,144.0078 Q461.5,143.9375 462.1094,143.0156 L463.1563,146.6719 L461.8281,147.0781 Q461.3594,145.5313 460.6953,144.8672 Q460.0313,144.2031 458.9688,144.2031 Q458.5781,144.2031 457.8125,145.7344 Q457.0469,147.2656 457.0469,149.5156 Q457.0469,151.9844 457.7109,153.375 Q458.375,154.7656 458.9063,154.7656 Q459.9688,154.7656 460.7266,154 Q461.4844,153.2344 461.8281,151.5781 L463.1563,152.1719 Q462.8281,153.5781 461.9297,154.4688 Q461.0313,155.3594 458.8281,155.3594 Z " fill="#000000"/><text fill="#000000" font-family="sans-serif" font-size="14" lengthAdjust="spacing" textLength="36" x="480.75" y="156.4839">Table</text><line style="stroke:#181818;stroke-width:0.5;" x1="410" x2="555" y1="166" y2="166"/><line style="stroke:#181818;stroke-width:0.5;" x1="410" x2="555" y1="174" y2="174"/><text fill="#000000" font-family="sans-serif" font-size="14" lengthAdjust="spacing" textLength="135" x="415" y="194.0439">accept(visitor:IVisitor)</text></g><g id="elem_GMN9"><path d="M400.5,26.5 L400.5,54.2544 A0,0 0 0 0 400.5,54.2544 L481.18,54.2544 L483.28,133.88 L489.18,54.2544 L570.5,54.2544 A0,0 0 0 0 570.5,54.2544 L570.5,36.5 L560.5,26.5 L400.5,26.5 A0,0 0 0 0 400.5,26.5 " fill="#FEFFDD" style="stroke:#181818;stroke-width:0.5;"/><path d="M560.5,26.5 L560.5,36.5 L570.5,36.5 L560.5,26.5 " fill="#FEFFDD" style="stroke:#181818;stroke-width:0.5;"/><text fill="#000000" font-family="sans-serif" font-size="13" lengthAdjust="spacing" textLength="149" x="406.5" y="46.3979">调用visitor.VisitTable(this)</text></g><!--MD5=[c62e68622a9cfe106f59b2a759333932]
reverse link IDocumentItem to Paragraph--><g id="link_IDocumentItem_Paragraph"><path codeLine="17" d="M228.47,85.51 C205.65,101.45 180.3,119.15 159.14,133.93 " fill="none" id="IDocumentItem-backto-Paragraph" style="stroke:#181818;stroke-width:1.0;stroke-dasharray:7.0,7.0;"/><polygon fill="none" points="224.53,79.73,244.94,74.02,232.55,91.21,224.53,79.73" style="stroke:#181818;stroke-width:1.0;"/></g><!--MD5=[f80158563861a94eb1366c16cd4f624b]
reverse link IDocumentItem to Picture--><g id="link_IDocumentItem_Picture"><path codeLine="18" d="M292.76,94.2 C293.09,107.61 293.42,121.63 293.71,133.71 " fill="none" id="IDocumentItem-backto-Picture" style="stroke:#181818;stroke-width:1.0;stroke-dasharray:7.0,7.0;"/><polygon fill="none" points="285.76,94.18,292.28,74.02,299.76,93.84,285.76,94.18" style="stroke:#181818;stroke-width:1.0;"/></g><!--MD5=[31d94f948f94779fa3e1ae59aca8061b]
reverse link IDocumentItem to Table--><g id="link_IDocumentItem_Table"><path codeLine="19" d="M358.04,85.05 C382.58,101.1 409.93,119.01 432.73,133.93 " fill="none" id="IDocumentItem-backto-Table" style="stroke:#181818;stroke-width:1.0;stroke-dasharray:7.0,7.0;"/><polygon fill="none" points="354.09,90.83,341.18,74.02,361.75,79.11,354.09,90.83" style="stroke:#181818;stroke-width:1.0;"/></g><!--MD5=[6c1ae127327ec38090881959178408ad]
@startuml
interface IDocumentItem {
    accept(visitor:IVisitor)
}
note left:每个文档项接受一个访问者\n并调用对应的访问者方法
class Paragraph{
    accept(visitor:IVisitor)
}

class Picture{
    accept(visitor:IVisitor)
}

class Table{
    accept(visitor:IVisitor)
}
note top of Table:调用visitor.VisitTable(this)
IDocumentItem<|..Paragraph
IDocumentItem<|..Picture
IDocumentItem<|..Table
@enduml

PlantUML version 1.2022.7(Tue Aug 23 01:01:30 CST 2022)
(GPL source distribution)
Java Runtime: Java(TM) SE Runtime Environment
JVM: Java HotSpot(TM) 64-Bit Server VM
Default Encoding: GBK
Language: zh
Country: CN
--></g></svg>