<?xml version="1.0" encoding="UTF-8" standalone="no"?><svg xmlns="http://www.w3.org/2000/svg" xmlns:xlink="http://www.w3.org/1999/xlink" contentStyleType="text/css" height="284px" preserveAspectRatio="none" style="width:709px;height:284px;background:#FFFFFF;" version="1.1" viewBox="0 0 709 284" width="709px" zoomAndPan="magnify"><defs/><g><!--MD5=[86b19e389e6533d37437225d9ce7df37]
class IVisitor--><g id="elem_IVisitor"><rect codeLine="1" fill="#F1F1F1" height="105.3604" id="IVisitor" rx="2.5" ry="2.5" style="stroke:#181818;stroke-width:0.5;" width="268" x="283" y="7"/><ellipse cx="391.25" cy="23" fill="#B4A7E5" rx="11" ry="11" style="stroke:#181818;stroke-width:1.0;"/><path d="M387.8438,17.2813 L387.8438,16.875 L394.1563,16.875 L394.1563,17.2813 L391.625,17.2813 Q391.625,17.2813 391.7734,17.4141 Q391.9219,17.5469 391.9219,17.8125 L391.9219,27.2969 Q391.9219,27.5625 392.1406,27.6953 Q392.3594,27.8281 392.3594,27.8281 L394.1563,27.8281 L394.1563,28.2344 L387.8438,28.2344 L387.8438,27.8281 L389.375,27.8281 Q389.7031,27.8281 389.8359,27.6953 Q389.9688,27.5625 389.9688,27.2969 L389.9688,17.8125 Q389.9688,17.5469 389.8359,17.4141 Q389.7031,17.2813 389.375,17.2813 L387.8438,17.2813 Z " fill="#000000"/><text fill="#000000" font-family="sans-serif" font-size="14" font-style="italic" lengthAdjust="spacing" textLength="43" x="411.75" y="29.4839">IVisitor</text><line style="stroke:#181818;stroke-width:0.5;" x1="284" x2="550" y1="39" y2="39"/><line style="stroke:#181818;stroke-width:0.5;" x1="284" x2="550" y1="47" y2="47"/><text fill="#000000" font-family="sans-serif" font-size="14" lengthAdjust="spacing" textLength="256" x="289" y="67.0439">renderParagraph(paragraph:Paragraph)</text><text fill="#000000" font-family="sans-serif" font-size="14" lengthAdjust="spacing" textLength="187" x="289" y="86.1641">renderPicture(picture:Picture)</text><text fill="#000000" font-family="sans-serif" font-size="14" lengthAdjust="spacing" textLength="159" x="289" y="105.2842">renderTable(table:Table)</text></g><g id="elem_GMN3"><path d="M6,45.5 L6,73.2544 A0,0 0 0 0 6,73.2544 L248,73.2544 A0,0 0 0 0 248,73.2544 L248,63.5 L282.83,59.5 L248,55.5 L248,55.5 L238,45.5 L6,45.5 A0,0 0 0 0 6,45.5 " fill="#FEFFDD" style="stroke:#181818;stroke-width:0.5;"/><path d="M238,45.5 L238,55.5 L248,55.5 L238,45.5 " fill="#FEFFDD" style="stroke:#181818;stroke-width:0.5;"/><text fill="#000000" font-family="sans-serif" font-size="13" lengthAdjust="spacing" textLength="221" x="12" y="65.3979">每个访问者提供了渲染任何文档的方法</text></g><!--MD5=[fdd7da9010b17023535d2baa3a3c9e81]
class Render--><g id="elem_Render"><rect codeLine="7" fill="#F1F1F1" height="105.3604" id="Render" rx="2.5" ry="2.5" style="stroke:#181818;stroke-width:0.5;" width="268" x="131" y="172"/><ellipse cx="237.25" cy="188" fill="#ADD1B2" rx="11" ry="11" style="stroke:#181818;stroke-width:1.0;"/><path d="M235.8281,193.3594 Q233.9688,193.3594 232.875,191.9688 Q231.7813,190.5781 231.7813,187.5938 Q231.7813,185.0625 232.9453,183.4063 Q234.1094,181.75 236.0938,181.75 Q237.5625,181.75 238.0313,181.875 Q238.5,182.0781 238.5,182.0781 Q238.5,182.0781 238.5,182.0078 Q238.5,181.9375 239.1094,181.0156 L240.1563,184.6719 L238.8281,185.0781 Q238.3594,183.5313 237.6953,182.8672 Q237.0313,182.2031 235.9688,182.2031 Q235.5781,182.2031 234.8125,183.7344 Q234.0469,185.2656 234.0469,187.5156 Q234.0469,189.9844 234.7109,191.375 Q235.375,192.7656 235.9063,192.7656 Q236.9688,192.7656 237.7266,192 Q238.4844,191.2344 238.8281,189.5781 L240.1563,190.1719 Q239.8281,191.5781 238.9297,192.4688 Q238.0313,193.3594 235.8281,193.3594 Z " fill="#000000"/><text fill="#000000" font-family="sans-serif" font-size="14" lengthAdjust="spacing" textLength="47" x="257.75" y="194.4839">Render</text><line style="stroke:#181818;stroke-width:0.5;" x1="132" x2="398" y1="204" y2="204"/><line style="stroke:#181818;stroke-width:0.5;" x1="132" x2="398" y1="212" y2="212"/><text fill="#000000" font-family="sans-serif" font-size="14" lengthAdjust="spacing" textLength="256" x="137" y="232.0439">renderParagraph(paragraph:Paragraph)</text><text fill="#000000" font-family="sans-serif" font-size="14" lengthAdjust="spacing" textLength="187" x="137" y="251.1641">renderPicture(picture:Picture)</text><text fill="#000000" font-family="sans-serif" font-size="14" lengthAdjust="spacing" textLength="159" x="137" y="270.2842">renderTable(table:Table)</text></g><!--MD5=[cf938a7a702b33ddb8112b793ead04a5]
class ScreenReader--><g id="elem_ScreenReader"><rect codeLine="13" fill="#F1F1F1" height="105.3604" id="ScreenReader" rx="2.5" ry="2.5" style="stroke:#181818;stroke-width:0.5;" width="268" x="434" y="172"/><ellipse cx="517.75" cy="188" fill="#ADD1B2" rx="11" ry="11" style="stroke:#181818;stroke-width:1.0;"/><path d="M516.3281,193.3594 Q514.4688,193.3594 513.375,191.9688 Q512.2813,190.5781 512.2813,187.5938 Q512.2813,185.0625 513.4453,183.4063 Q514.6094,181.75 516.5938,181.75 Q518.0625,181.75 518.5313,181.875 Q519,182.0781 519,182.0781 Q519,182.0781 519,182.0078 Q519,181.9375 519.6094,181.0156 L520.6563,184.6719 L519.3281,185.0781 Q518.8594,183.5313 518.1953,182.8672 Q517.5313,182.2031 516.4688,182.2031 Q516.0781,182.2031 515.3125,183.7344 Q514.5469,185.2656 514.5469,187.5156 Q514.5469,189.9844 515.2109,191.375 Q515.875,192.7656 516.4063,192.7656 Q517.4688,192.7656 518.2266,192 Q518.9844,191.2344 519.3281,189.5781 L520.6563,190.1719 Q520.3281,191.5781 519.4297,192.4688 Q518.5313,193.3594 516.3281,193.3594 Z " fill="#000000"/><text fill="#000000" font-family="sans-serif" font-size="14" lengthAdjust="spacing" textLength="92" x="538.25" y="194.4839">ScreenReader</text><line style="stroke:#181818;stroke-width:0.5;" x1="435" x2="701" y1="204" y2="204"/><line style="stroke:#181818;stroke-width:0.5;" x1="435" x2="701" y1="212" y2="212"/><text fill="#000000" font-family="sans-serif" font-size="14" lengthAdjust="spacing" textLength="256" x="440" y="232.0439">renderParagraph(paragraph:Paragraph)</text><text fill="#000000" font-family="sans-serif" font-size="14" lengthAdjust="spacing" textLength="187" x="440" y="251.1641">renderPicture(picture:Picture)</text><text fill="#000000" font-family="sans-serif" font-size="14" lengthAdjust="spacing" textLength="159" x="440" y="270.2842">renderTable(table:Table)</text></g><!--MD5=[609e4cf8f8dfefdcdf70a375d9323704]
reverse link IVisitor to Render--><g id="link_IVisitor_Render"><path codeLine="19" d="M355.16,126.81 C341.12,141.87 326.41,157.65 313.04,171.98 " fill="none" id="IVisitor-backto-Render" style="stroke:#181818;stroke-width:1.0;stroke-dasharray:7.0,7.0;"/><polygon fill="none" points="350.15,121.93,368.91,112.07,360.39,131.48,350.15,121.93" style="stroke:#181818;stroke-width:1.0;"/></g><!--MD5=[60b1951682a25d81a16db74aad31d3cb]
reverse link IVisitor to ScreenReader--><g id="link_IVisitor_ScreenReader"><path codeLine="20" d="M478.43,126.81 C492.38,141.87 506.99,157.65 520.27,171.98 " fill="none" id="IVisitor-backto-ScreenReader" style="stroke:#181818;stroke-width:1.0;stroke-dasharray:7.0,7.0;"/><polygon fill="none" points="473.23,131.5,464.78,112.07,483.5,121.99,473.23,131.5" style="stroke:#181818;stroke-width:1.0;"/></g><!--MD5=[6c73e1340312a1027bab0d28a00d9872]
@startuml
interface IVisitor {
    renderParagraph(paragraph:Paragraph)
    renderPicture(picture:Picture)
    renderTable(table:Table)
}
note left:每个访问者提供了渲染任何文档的方法
class Render{
    renderParagraph(paragraph:Paragraph)
    renderPicture(picture:Picture)
    renderTable(table:Table)
}

class ScreenReader{
    renderParagraph(paragraph:Paragraph)
    renderPicture(picture:Picture)
    renderTable(table:Table)
}

IVisitor<|.. Render
IVisitor<|.. ScreenReader

@enduml

PlantUML version 1.2022.7(Tue Aug 23 01:01:30 CST 2022)
(GPL source distribution)
Java Runtime: Java(TM) SE Runtime Environment
JVM: Java HotSpot(TM) 64-Bit Server VM
Default Encoding: GBK
Language: zh
Country: CN
--></g></svg>